<svg width="225" height="260" viewBox="0 0 225 260" fill="none" xmlns="http://www.w3.org/2000/svg">
<path d="M83.9617 253.745C97.4317 181.019 110.814 83.7365 89.5085 48.7904C76.8309 36.512 42.7595 37.4565 24.5354 45.9569C23.9015 33.0174 33.2505 28.0116 35.6285 24.2337C86.4819 10.7003 129.92 -8.82328 192.515 4.39963C195.685 8.17759 199.647 8.17759 203.608 20.9553C187.619 14.7595 126.607 20.9553 113.137 39.8073C106.593 113.855 113.137 166.822 139.602 248.388C127.97 249.635 95.5776 252.479 83.9617 253.745Z" fill="#405988"/>
<path d="M116.447 110.182C113.279 90.348 113.008 60.8668 117.764 41.2328C132.549 32.9911 142.617 29.6941 160.147 26.8606C160.075 29.6393 160.22 39.1282 160.147 41.8984C152.377 43.2048 144.602 44.5118 136.824 45.8194C135.982 54.3952 135.132 62.9723 134.275 71.5505C142.129 71.1933 149.984 70.8318 157.838 70.4661C158.073 74.1753 158.305 77.8894 158.533 81.6084C150.188 81.2034 141.845 80.7893 133.506 80.366C132.624 89.6161 132.386 90.5508 131.503 99.7925C141.087 102.149 151.609 102.698 161.061 99.7925C160.962 104.05 161.159 108.54 161.061 112.797C141.825 108.813 128.644 110.182 116.447 110.182Z" fill="#405988"/>
<path d="M165.277 113.696C166.366 83.5127 164.781 55.1781 165.574 25.8989C174.29 23.0658 184.591 22.1215 197.268 24.0102C182.213 45.0125 174.29 88.459 181.421 117.738C177.477 117.39 169.215 114.034 165.277 113.696Z" fill="#405988"/>
<path d="M189.139 237.695C168.743 201.804 167.951 165.914 164.196 146.155C170.758 146.155 163.784 146.155 164.196 146.155C148.934 168.747 161.612 209.36 172.705 238.639C167.644 238.954 149.015 244.382 147.35 246.195C145.685 248.009 120.41 159.296 117.24 116.794C129.506 115.887 171.12 116.8 181.421 125.294C183.005 149.851 190.137 178.19 202.814 207.471C204.144 209.133 203.78 209.133 207.568 207.471C183.005 131.91 177.459 59.1848 202.022 26.1277C207.104 25.8128 217.077 26.1226 220.246 48.7954C194.891 78.0695 223.415 197.075 225 237.695C220.436 238.602 193.703 236.788 189.139 237.695Z" fill="#405988"/>
<path d="M54.1328 126.072C49.1054 126.072 44.5252 125.31 40.392 123.797C36.2489 122.347 33.0994 120.497 30.9434 118.272C30.3671 114.747 29.9697 111.346 29.7114 108.059C29.4531 104.696 29.3339 101.471 29.3239 98.3455C29.3339 91.2326 29.9002 84.5446 31.0328 78.2942C32.1953 71.9939 33.7055 66.2559 35.6131 61.1431C37.3503 56.4871 36.3948 59.1729 38.9514 52.4019C41.5079 45.6309 42.0012 45.7907 42.7939 44.8457C44.3786 42.9567 64.3928 40.9071 70.5263 45.7907C64.6743 50.5034 56.6365 64.1809 52.3146 70.7438C48.0523 77.2316 44.7438 84.1321 42.3891 91.5076C40.1039 98.8705 39.6344 106.096 39.6245 113.459C41.095 113.759 41.9221 114.146 43.4422 114.309C44.9723 114.396 46.5321 114.434 48.1218 114.421C51.2316 114.434 54.3712 114.109 57.5506 113.459C60.7398 112.746 62.2302 112.071 65.7374 112.071C67.3221 114.905 69.4532 118.747 70.5263 123.072C67.804 124.11 65.032 124.872 62.2302 125.347C59.4383 125.835 56.7359 126.072 54.1328 126.072Z" fill="#405988"/>
<path d="M80.287 110.068C76.2858 110.372 72.8533 110.026 70.0105 109.125C67.1844 108.242 64.8484 107.019 63.0339 105.453C62.4501 102.847 61.9969 100.307 61.6594 97.8534C61.3169 95.3052 61.0931 92.8994 60.9662 90.5241C60.6803 85.1703 60.8395 80.1233 61.5239 75.3962C62.1618 70.6915 63.155 66.3951 64.4749 62.5661C65.853 58.6381 67.4037 55.2648 69.1239 52.3897C70.8619 49.5511 74.2797 46.681 76.0643 45.0124C79.9448 46.6107 83.0321 49.0918 86.3386 53.0239C89.7073 56.9324 91.3369 62.3921 93.4697 68.1358C95.6659 73.8746 96.1205 80.2639 96.4893 87.4664C96.7487 92.0272 96.6434 95.4119 95.8468 98.6333C95.063 101.797 94.0264 105.088 91.4679 106.834C88.9736 108.595 85.2529 109.691 80.287 110.068ZM75.4202 101.598C77.5552 101.436 79.6664 101.124 81.7645 100.568C83.8814 100.066 85.7045 99.4168 87.2982 98.6333C87.7038 95.8202 87.9366 93.3418 87.9662 91.2196C88.0748 89.0915 88.0321 86.8044 87.9042 84.4103C87.6495 79.6409 87.0996 75.2912 86.2219 71.3451C85.361 67.4167 84.205 63.908 82.7696 60.8181C79.6724 64.6684 77.0728 68.9163 74.9826 73.4852C72.8904 78.0163 71.3449 82.6764 70.3304 87.4664C69.3476 92.254 68.9785 96.9384 69.2201 101.463C70.1653 101.618 71.1243 101.735 72.1425 101.771C73.2219 101.765 74.3142 101.701 75.4202 101.598Z" fill="#405988"/>
<path d="M58.6254 251.567C50.736 253.276 43.3753 253.699 36.5464 252.855C29.716 252.108 24.3541 250.428 20.4664 247.852C18.7631 242.807 17.3689 237.887 16.2184 233.087C15.0509 228.175 14.1329 223.42 13.409 218.777C11.8126 208.199 11.1856 198.063 11.5465 188.385C11.9429 178.623 13.0124 169.579 14.8473 161.329C16.7715 152.926 19.1648 145.592 22.0115 139.331C24.8667 132.914 27.9132 127.858 31.1367 124.068C41.8792 129.242 54.6718 131.913 71.2269 128.146C63.1115 137.142 48.5279 158.7 43.2329 169.926C38.0144 181.021 34.3862 192.405 32.3624 204.17C30.445 215.894 31.5403 237.712 34.0433 237.712C36.5464 237.712 39.9749 237.987 42.3973 237.712C44.8182 237.322 47.3985 236.358 49.8904 235.799C54.7734 234.761 56.2883 233.7 61.1304 231.653C65.9738 229.51 70.8046 226.755 75.6482 223.344C78.3331 229.405 81.0077 235.469 83.6718 241.535C79.6348 244.003 75.4576 246.079 71.1683 247.737C66.8976 249.411 62.7104 250.683 58.6254 251.567Z" fill="#405988"/>
<path d="M56.863 219.03C52.3695 217.345 48.7374 215.206 45.9552 212.732C43.185 210.285 41.0764 207.699 39.6649 204.986C39.9833 201.709 40.4205 198.573 40.9529 195.595C41.5144 192.506 42.1537 189.64 42.8878 186.858C44.5426 180.588 46.5721 174.896 49.0591 169.835C51.4871 164.777 54.154 160.367 57.0069 156.657C59.96 152.864 62.8981 149.793 65.8388 147.377C68.7855 145.013 71.5517 143.333 74.1194 142.33C77.7816 146.13 80.727 151.092 82.9027 157.27C85.1553 163.452 86.3763 170.437 86.6009 178.091C86.8966 185.771 85.9401 193.759 83.6965 202.186C82.3042 207.535 80.5592 211.854 78.5027 215.135C76.4815 218.356 73.7401 220.312 70.2962 221.01C66.9176 221.757 62.4399 221.121 56.863 219.03ZM54.6466 206.868C57.0443 207.767 59.4708 208.483 61.9732 208.912C64.4758 209.414 66.7111 209.597 68.7444 209.51C70.2226 206.498 71.3885 203.781 72.201 201.369C73.1022 198.989 73.896 196.351 74.636 193.547C76.1102 187.962 77.1067 182.707 77.596 177.747C78.0973 172.815 78.1209 168.214 77.6847 163.951C72.8776 166.782 68.4692 170.321 64.5008 174.486C60.544 178.607 57.1386 183.152 54.2669 188.117C51.4307 193.094 49.3047 198.266 47.9063 203.564C48.8842 204.222 49.8916 204.842 50.9934 205.401C52.1778 205.942 53.3975 206.424 54.6466 206.868Z" fill="#405988"/>
</svg>
